<?xml version="1.0" encoding="UTF-8" standalone="no"?>
<!-- Created with Inkscape (http://www.inkscape.org/) -->

<svg
   width="210mm"
   height="297mm"
   viewBox="0 0 210 297"
   version="1.1"
   id="svg5"
   inkscape:version="1.1.2 (b8e25be833, 2022-02-05)"
   sodipodi:docname="little.svg"
   xmlns:inkscape="http://www.inkscape.org/namespaces/inkscape"
   xmlns:sodipodi="http://sodipodi.sourceforge.net/DTD/sodipodi-0.dtd"
   xmlns="http://www.w3.org/2000/svg"
   xmlns:svg="http://www.w3.org/2000/svg">
  <sodipodi:namedview
     id="namedview7"
     pagecolor="#505050"
     bordercolor="#ffffff"
     borderopacity="1"
     inkscape:pageshadow="0"
     inkscape:pageopacity="0"
     inkscape:pagecheckerboard="1"
     inkscape:document-units="mm"
     showgrid="false"
     inkscape:snap-object-midpoints="true"
     inkscape:snap-page="true"
     inkscape:snap-intersection-paths="true"
     inkscape:snap-bbox="true"
     inkscape:zoom="1.393294"
     inkscape:cx="442.11774"
     inkscape:cy="59.571059"
     inkscape:window-width="1920"
     inkscape:window-height="986"
     inkscape:window-x="-11"
     inkscape:window-y="-11"
     inkscape:window-maximized="1"
     inkscape:current-layer="layer4" />
  <defs
     id="defs2">
    <rect
       x="353.73254"
       y="30.450433"
       width="212.13802"
       height="175.5975"
       id="rect5336" />
    <rect
       x="313.13195"
       y="28.420404"
       width="287.75659"
       height="205.54042"
       id="rect21253" />
    <rect
       x="318.20702"
       y="53.795765"
       width="258.32117"
       height="133.4744"
       id="rect15813" />
  </defs>
  <g
     inkscape:label="Camada 1"
     inkscape:groupmode="layer"
     id="layer1"
     sodipodi:insensitive="true" />
  <g
     inkscape:groupmode="layer"
     id="layer2"
     inkscape:label="Camada 2"
     style="display:inline"
     sodipodi:insensitive="true">
    <path
       style="fill:#003380;stroke:#000000;stroke-width:0.264583px;stroke-linecap:butt;stroke-linejoin:miter;stroke-opacity:1"
       d="M 111.51252,32.702208 96.415648,6.5536715"
       id="path8237" />
    <path
       style="fill:#003380;stroke:#000000;stroke-width:0.264583px;stroke-linecap:butt;stroke-linejoin:miter;stroke-opacity:1"
       d="M 111.51252,32.702208 126.60938,6.5536686"
       id="path8237-1" />
    <path
       style="fill:#003380;stroke:#000000;stroke-width:0.264583px;stroke-linecap:butt;stroke-linejoin:miter;stroke-opacity:1"
       d="M 96.415656,58.850747 111.51252,32.702208"
       id="path8237-1-2" />
    <path
       style="fill:#003380;stroke:#000000;stroke-width:0.264583px;stroke-linecap:butt;stroke-linejoin:miter;stroke-opacity:1"
       d="M 111.51251,58.850743 126.60937,32.702204"
       id="path8237-1-2-1" />
    <path
       style="fill:#003380;stroke:#000000;stroke-width:0.264583px;stroke-linecap:butt;stroke-linejoin:miter;stroke-opacity:1"
       d="m 96.415648,6.5536715 30.193732,-2.9e-6"
       id="path8237-7" />
    <path
       style="fill:#003380;stroke:#000000;stroke-width:0.264583px;stroke-linecap:butt;stroke-linejoin:miter;stroke-opacity:1"
       d="M 126.60938,6.5536686 141.70625,32.702204"
       id="path8237-7-9" />
    <path
       style="fill:#003380;stroke:#000000;stroke-width:0.264583px;stroke-linecap:butt;stroke-linejoin:miter;stroke-opacity:1"
       d="M 126.60938,58.850745 141.70625,32.702204"
       id="path8237-7-9-0" />
    <path
       style="fill:#003380;stroke:#000000;stroke-width:0.264583px;stroke-linecap:butt;stroke-linejoin:miter;stroke-opacity:1"
       d="m 96.415647,58.850742 30.193733,3e-6"
       id="path8237-7-9-0-3" />
    <path
       style="fill:#003380;stroke-width:0.358862"
       d="M 393.67139,74.058746 C 378.47359,47.718687 365.9852,26.012807 365.91941,25.823458 c -0.076,-0.218821 20.16015,-0.344271 55.53386,-0.344271 30.60942,0 55.65348,0.06972 55.65348,0.154939 0,0.285289 -54.99056,95.475954 -55.39958,95.898684 -0.3016,0.31172 -7.37769,-11.67049 -28.03578,-47.474064 z"
       id="path8682"
       transform="scale(0.26458333)" />
    <path
       style="fill:#0044aa;stroke:#000000;stroke-width:0.264583px;stroke-linecap:butt;stroke-linejoin:miter;stroke-opacity:1"
       d="m 126.60937,32.702203 7.54844,-13.074267"
       id="path11431" />
    <path
       style="fill:#5599ff;stroke-width:0.507507"
       d="M 371.64884,211.49776 C 451.25977,73.48469 478.58787,26.476402 478.89535,27.018263 c 0.20001,0.352484 6.40676,11.112068 13.79278,23.910187 l 13.42911,23.269306 -4.7357,8.196142 c -2.60463,4.507877 -21.7452,37.656932 -42.53459,73.664572 l -37.79888,65.46843 -27.66788,0.13119 -27.66788,0.13121 z"
       id="path11503"
       transform="scale(0.26458333)" />
    <path
       style="fill:#aaccff;stroke-width:0.507507"
       d="m 423.09185,221.33803 c 0.91432,-2.39226 83.90475,-145.162735 84.20424,-144.85863 0.22096,0.224368 6.45856,10.910086 13.86134,23.74604 l 13.45959,23.3381 -1.62848,2.87647 c -0.89567,1.58207 -13.61835,23.67338 -28.27262,49.09181 l -26.64412,46.21534 -27.57456,0.0167 c -15.48685,0.009 -27.5004,-0.17728 -27.40539,-0.42587 z"
       id="path11844"
       transform="scale(0.26458333)" />
  </g>
  <g
     inkscape:groupmode="layer"
     id="layer3"
     inkscape:label="Camada 3"
     style="display:none"
     sodipodi:insensitive="true">
    <g
       transform="scale(0.26458333)"
       id="text15811"
       style="font-size:40px;line-height:1.25;white-space:pre;shape-inside:url(#rect15813)" />
    <g
       aria-label="Export Import Power Automate"
       transform="matrix(0.26458333,0,0,0.26458333,10.070846,-1.7456134)"
       id="text21251"
       style="font-size:40px;line-height:1.25;font-family:'Harlow Solid Italic';-inkscape-font-specification:'Harlow Solid Italic, ';white-space:pre;shape-inside:url(#rect21253)">
      <path
         d="m 331.58984,46.454969 3.94532,-9.550781 q 0.64453,-1.582031 1.28906,-2.011719 0.64453,-0.429687 2.40234,-0.429687 h 10.07813 q 2.69531,0 2.69531,1.835937 0,1.210938 -0.89844,2.03125 -0.8789,0.800782 -2.1875,0.800782 h -0.52734 -8.32031 l -2.96875,7.324218 h 2.4414 0.50781 q 2.1875,0 2.1875,1.894532 0,1.152343 -0.89843,1.972656 -0.89844,0.800781 -2.1875,0.800781 h -0.52735 -3.41797 l -4.33593,10.664063 h 13.49609 0.50781 q 2.1875,0 2.1875,1.835937 0,1.210938 -0.89843,2.011719 -0.87891,0.820312 -2.1875,0.820312 h -0.52735 -14.47265 l -0.25391,0.546875 q -1.36719,3.046875 -2.14844,4.277344 -0.76172,1.230469 -2.01172,2.382813 -3.26172,2.988281 -7.5,2.988281 -3.45703,0 -5.68359,-2.050781 -2.24609,-2.050782 -2.24609,-5.214844 0,-1.972656 0.95703,-3.691406 0.95703,-1.71875 2.59765,-2.675782 2.12891,-1.230468 5.76172,-1.230468 h 6.91406 l 4.33594,-10.664063 h -0.17578 -0.46875 q -2.1875,0 -2.1875,-1.914062 0,-1.152344 0.89844,-1.953125 0.89844,-0.800782 2.1875,-0.800782 h 0.52734 z m -8.125,20 h -5.15625 q -3.82812,0 -3.82812,2.714844 0,1.113281 0.83984,1.855469 0.85938,0.761719 2.10938,0.761719 1.75781,0 3.35937,-1.425782 1.6211,-1.425781 2.67578,-3.90625 z"
         style="fill:#800000;stroke:#ffffff"
         id="path852" />
      <path
         d="m 353.44531,50.068251 2.20703,-2.5 q 1.46485,-1.660157 2.73438,-1.660157 0.8789,0 1.46484,0.585938 0.58594,0.566406 0.58594,1.425781 0,1.191406 -1.54297,2.734375 l -3.33984,3.300781 1.62109,3.789063 0.17578,0.390625 q 0.21485,0.488281 0.21485,0.957031 0,0.878906 -0.78125,1.601563 -0.76172,0.703125 -1.71875,0.703125 -1.15235,0 -1.81641,-1.40625 l -1.21094,-2.65625 -2.28515,2.421875 -0.41016,0.429687 q -1.15234,1.210938 -2.34375,1.210938 -0.87891,0 -1.46484,-0.566407 -0.56641,-0.585937 -0.56641,-1.445312 0,-1.074219 1.48437,-2.597656 l 3.47657,-3.574219 -1.50391,-3.496094 q -0.37109,-0.878906 -0.37109,-1.367187 0,-0.9375 0.76172,-1.679688 0.78125,-0.761719 1.73828,-0.761719 1.17187,0 1.83593,1.621094 z"
         style="stroke:#ffffff"
         id="path854" />
      <path
         d="m 364.20703,59.599501 -5.09766,12.539062 q -1.05468,2.597656 -3.08593,2.597656 -0.78125,0 -1.32813,-0.527343 -0.5664,-0.507813 -0.5664,-1.230469 0,-0.605469 0.48828,-1.835938 l 9.41406,-23.203125 q 0.72266,-1.757812 2.5,-1.757812 1.23047,0 1.95312,1.171875 1.36719,-1.445313 3.33985,-1.445313 2.05078,0 3.30078,1.5625 1.26953,1.542969 1.26953,4.082032 0,4.804687 -2.98828,7.832031 -0.97656,0.996094 -2.01172,1.367187 -1.03516,0.371094 -2.89062,0.371094 -1.99219,0 -2.75391,-0.273437 -0.74219,-0.273438 -1.54297,-1.25 z m 1.60156,-3.984375 q 0.48828,0.859375 0.91797,1.113281 0.44922,0.253906 1.40625,0.253906 1.38672,0 2.16797,-1.035156 1.58203,-2.089844 1.58203,-4.296875 0,-1.894531 -1.79687,-1.894531 -1.97266,0 -2.83203,2.285156 -0.0977,0.253906 -0.15625,0.429687 z"
         style="stroke:#ffffff"
         id="path856" />
      <path
         d="m 386.47266,45.908094 q 2.83203,0 4.64843,1.796875 1.83594,1.796875 1.83594,4.570313 0,2.089844 -0.95703,4.160156 -0.95703,2.050781 -2.48047,3.28125 -1.01562,0.800781 -2.10937,1.113281 -1.07422,0.292969 -3.02735,0.292969 -3.18359,0 -4.29687,-0.761719 -2.61719,-1.796875 -2.61719,-5.3125 0,-3.710937 2.67578,-6.425781 2.67578,-2.714844 6.32813,-2.714844 z m -0.46875,4.160157 q -1.44532,0 -2.63672,1.425781 -1.19141,1.425781 -1.19141,3.144531 0,2.265625 2.53906,2.265625 1.48438,0 2.28516,-0.917969 1.32812,-1.503906 1.32812,-3.4375 0,-1.113281 -0.64453,-1.796875 -0.64453,-0.683593 -1.67968,-0.683593 z"
         style="stroke:#ffffff"
         id="path858" />
      <path
         d="m 398.875,50.458876 -0.66406,1.640625 q -0.89844,2.1875 -2.34375,2.1875 -0.87891,0 -1.46485,-0.527344 -0.58593,-0.527344 -0.58593,-1.308594 0,-0.449219 0.42968,-1.523437 l 2.20703,-5.449219 q 0.80079,-1.972656 2.26563,-1.972656 1.44531,0 1.77734,1.367187 l 0.15625,0.605469 q 0.11719,0.46875 0.35157,0.585937 0.23437,0.117188 1.15234,0.117188 h 4.57031 q 2.5586,0 2.5586,1.796875 0,2.480469 -3.24219,2.480469 l -0.21485,0.195312 q -3.10546,2.96875 -3.10546,4.589844 0,1.621094 1.79687,1.621094 h 2.46094 q 2.48047,0 2.48047,1.71875 0,1.210937 -0.87891,1.875 -0.85937,0.664062 -2.42187,0.664062 h -3.82813 q -1.95312,0 -3.20312,-1.347656 -1.23047,-1.347656 -1.23047,-3.496094 0,-1.367187 0.66406,-2.65625 0.66406,-1.289062 2.34375,-3.164062 z"
         style="stroke:#ffffff"
         id="path860" />
      <path
         d="m 420.08594,46.181532 h 0.60547 q 2.48046,0 2.48046,1.738281 0,1.191406 -0.8789,1.855469 -0.87891,0.664062 -2.42188,0.664062 h -1.42578 l -2.61719,6.425782 h 2.1875 q 2.48047,0 2.48047,1.738281 0,1.191406 -0.8789,1.855469 -0.85938,0.664062 -2.42188,0.664062 h -3.49609 q -1.48438,0 -2.36328,-0.683594 -0.85938,-0.683593 -0.85938,-1.855468 0,-0.722657 0.35156,-1.601563 l 0.3711,-0.859375 2.30469,-5.683594 h -0.29297 q -2.1875,0 -2.1875,-1.699218 0,-1.210938 0.85937,-1.875 0.87891,-0.683594 2.44141,-0.683594 h 0.89844 l 1.03515,-2.558594 0.21485,-0.527344 q 0.91796,-2.167968 2.89062,-2.167968 0.80078,0 1.36719,0.546875 0.58594,0.527343 0.58594,1.289062 0,0.742188 -0.50782,1.875 z"
         style="stroke:#ffffff"
         id="path862" />
      <path
         d="m 330.4375,106.45497 h 3.28125 q 2.69531,0 2.69531,1.875 0,1.32812 -0.95703,2.07031 -0.9375,0.72266 -2.65625,0.72266 h -3.55469 q -2.14843,0 -3.26172,-0.82031 -1.11328,-0.83985 -1.11328,-2.42188 0,-1.11328 0.80078,-3.10547 l 3.92579,-9.648436 q 1.1914,-2.929687 1.1914,-4.023437 0,-0.878906 -0.80078,-1.5625 -0.80078,-0.703125 -1.83594,-0.703125 -1.95312,0 -3.53515,1.699219 -1.58203,1.679687 -1.58203,3.769531 0,1.210937 0.52734,1.875 0.54687,0.664062 1.97266,1.230469 1.26953,0.507812 1.26953,1.738281 0,1.132808 -0.85938,1.874998 -0.83984,0.72266 -2.10937,0.72266 -2.44141,0 -4.17969,-2.070314 -1.73828,-2.089844 -1.73828,-5 0,-4.238282 3.20312,-7.421875 3.20313,-3.183594 7.46094,-3.183594 3.20313,0 5.33203,1.875 2.14844,1.875 2.14844,4.667969 0,2.011718 -1.01563,4.511718 z"
         style="fill:#800000;stroke:#ffffff"
         id="path864" />
      <path
         d="m 361.98047,106.86513 h 2.32422 q 2.46093,0 2.46093,1.73828 0,1.1914 -0.8789,1.85547 -0.85938,0.66406 -2.40235,0.66406 h -3.96484 q -1.28906,0 -2.08984,-0.6836 -0.80078,-0.68359 -0.80078,-1.79687 0,-0.76172 0.52734,-2.07031 l 1.83594,-4.47266 q 0.15625,-0.39062 0.15625,-0.72266 0,-1.26953 -1.28907,-1.26953 -0.99609,0 -1.97265,0.89844 -0.97656,0.89844 -1.5625,2.38281 l -2.1875,5.39063 q -1.07422,2.61719 -3.125,2.61719 -0.80078,0 -1.36719,-0.52735 -0.56641,-0.52734 -0.56641,-1.25 0,-0.5664 0.29297,-1.32812 l 0.21485,-0.52735 2.20703,-5.44922 q 0.29297,-0.72265 0.29297,-1.13281 0,-0.42969 -0.39063,-0.74219 -0.39062,-0.33203 -0.91797,-0.33203 -2.10937,0 -3.33984,3.04688 l -2.28516,5.60547 q -1.07422,2.63672 -3.10547,2.63672 -0.80078,0 -1.38671,-0.50782 -0.56641,-0.52734 -0.56641,-1.26953 0,-0.58594 0.29297,-1.32812 l 0.21484,-0.52735 3.88672,-9.570309 q 0.82031,-2.011719 2.46094,-2.011719 1.69922,0 2.10937,1.601562 1.32813,-1.132812 2.14844,-1.503906 0.83984,-0.371094 2.05078,-0.371094 2.61719,0 3.92578,2.285157 2.1875,-2.285157 4.92188,-2.285157 1.875,0 3.125,1.09375 1.26953,1.074219 1.26953,2.65625 0,0.996096 -0.42969,2.050786 z"
         style="stroke:#ffffff"
         id="path866" />
      <path
         d="m 371.74609,109.5995 -5.09765,12.53906 q -1.05469,2.59766 -3.08594,2.59766 -0.78125,0 -1.32813,-0.52734 -0.5664,-0.50782 -0.5664,-1.23047 0,-0.60547 0.48828,-1.83594 l 9.41406,-23.203126 q 0.72266,-1.757812 2.5,-1.757812 1.23047,0 1.95313,1.171875 1.36718,-1.445313 3.33984,-1.445313 2.05078,0 3.30078,1.5625 1.26953,1.542969 1.26953,4.082036 0,4.80468 -2.98828,7.83203 -0.97656,0.99609 -2.01172,1.36718 -1.03515,0.3711 -2.89062,0.3711 -1.99219,0 -2.75391,-0.27344 -0.74219,-0.27344 -1.54297,-1.25 z m 1.60157,-3.98437 q 0.48828,0.85937 0.91796,1.11328 0.44922,0.2539 1.40625,0.2539 1.38672,0 2.16797,-1.03515 1.58203,-2.08985 1.58203,-4.29688 0,-1.894529 -1.79687,-1.894529 -1.97266,0 -2.83203,2.285159 -0.0977,0.2539 -0.15625,0.42968 z"
         style="stroke:#ffffff"
         id="path868" />
      <path
         d="m 394.01172,95.908094 q 2.83203,0 4.64844,1.796875 1.83593,1.796875 1.83593,4.570311 0,2.08985 -0.95703,4.16016 -0.95703,2.05078 -2.48047,3.28125 -1.01562,0.80078 -2.10937,1.11328 -1.07422,0.29297 -3.02735,0.29297 -3.18359,0 -4.29687,-0.76172 -2.61719,-1.79688 -2.61719,-5.3125 0,-3.71094 2.67578,-6.425782 2.67578,-2.714844 6.32813,-2.714844 z m -0.46875,4.160156 q -1.44531,0 -2.63672,1.42578 -1.19141,1.42578 -1.19141,3.14453 0,2.26563 2.53907,2.26563 1.48437,0 2.28515,-0.91797 1.32813,-1.50391 1.32813,-3.4375 0,-1.11328 -0.64453,-1.79688 -0.64454,-0.68359 -1.67969,-0.68359 z"
         style="stroke:#ffffff"
         id="path870" />
      <path
         d="M 406.41406,100.45888 405.75,102.0995 q -0.89844,2.1875 -2.34375,2.1875 -0.87891,0 -1.46484,-0.52734 -0.58594,-0.52735 -0.58594,-1.3086 0,-0.44922 0.42969,-1.52343 l 2.20703,-5.449223 q 0.80078,-1.972656 2.26562,-1.972656 1.44531,0 1.77735,1.367187 l 0.15625,0.605469 q 0.11718,0.46875 0.35156,0.585937 0.23437,0.117188 1.15234,0.117188 h 4.57031 q 2.5586,0 2.5586,1.796875 0,2.480473 -3.24219,2.480473 l -0.21484,0.19531 q -3.10547,2.96875 -3.10547,4.58984 0,1.6211 1.79687,1.6211 h 2.46094 q 2.48047,0 2.48047,1.71875 0,1.21093 -0.87891,1.875 -0.85937,0.66406 -2.42187,0.66406 h -3.82813 q -1.95312,0 -3.20312,-1.34766 -1.23047,-1.34765 -1.23047,-3.49609 0,-1.36719 0.66406,-2.65625 0.66406,-1.28906 2.34375,-3.16406 z"
         style="stroke:#ffffff"
         id="path872" />
      <path
         d="m 427.625,96.181532 h 0.60547 q 2.48047,0 2.48047,1.738281 0,1.191406 -0.87891,1.855469 -0.87891,0.664058 -2.42187,0.664058 h -1.42579 l -2.61718,6.42579 h 2.1875 q 2.48047,0 2.48047,1.73828 0,1.1914 -0.87891,1.85547 -0.85938,0.66406 -2.42188,0.66406 h -3.49609 q -1.48437,0 -2.36328,-0.6836 -0.85938,-0.68359 -0.85938,-1.85546 0,-0.72266 0.35157,-1.60157 l 0.37109,-0.85937 2.30469,-5.6836 H 420.75 q -2.1875,0 -2.1875,-1.699214 0,-1.210938 0.85937,-1.875 0.87891,-0.683594 2.44141,-0.683594 h 0.89844 l 1.03515,-2.558594 0.21485,-0.527344 q 0.91797,-2.167968 2.89062,-2.167968 0.80078,0 1.36719,0.546875 0.58594,0.527343 0.58594,1.289062 0,0.742188 -0.50781,1.875 z"
         style="stroke:#ffffff"
         id="path874" />
      <path
         d="m 339.12891,147.78309 -3.24219,8.00782 q -2.42188,5.9375 -3.75,8.18359 -1.3086,2.24609 -3.32031,3.82813 -2.92969,2.30468 -6.79688,2.30468 -4.08203,0 -6.62109,-2.57812 -2.53907,-2.57813 -2.53907,-6.69922 0,-5.50781 4.02344,-9.62891 2.16797,-2.22656 5.42969,-3.57422 3.26172,-1.36718 6.46484,-1.36718 1.54297,0 2.48047,0.70312 0.9375,0.6836 0.9375,1.81641 0,1.1914 -1.01562,1.91406 -0.58594,0.42969 -2.2461,0.58594 -3.86718,0.35156 -6.26953,1.77734 -1.99219,1.19141 -3.14453,3.125 -1.15234,1.91406 -1.15234,4.04297 0,2.16797 1.11328,3.4375 1.13281,1.28906 3.02734,1.28906 2.38281,0 4.1211,-2.01172 1.73828,-2.01171 3.82812,-7.14843 l 6.77734,-16.66016 h -2.1289 q -2.69531,0 -2.69531,-1.875 0,-1.32812 0.9375,-2.05078 0.95703,-0.74219 2.67578,-0.74219 h 7.4414 q 3.75,0 5.52735,1.42578 1.79687,1.40625 1.79687,4.35547 0,3.59375 -2.77344,5.87891 -2.01171,1.66015 -6.21093,1.66015 z m 1.89453,-4.66796 h 1.58203 q 3.125,0 3.125,-2.53907 0,-1.44531 -1.77735,-1.44531 h -1.30859 z"
         style="fill:#800000;stroke:#ffffff"
         id="path876" />
      <path
         d="m 356.58984,145.90809 q 2.83203,0 4.64844,1.79688 1.83594,1.79687 1.83594,4.57031 0,2.08985 -0.95703,4.16016 -0.95703,2.05078 -2.48047,3.28125 -1.01563,0.80078 -2.10938,1.11328 -1.07422,0.29297 -3.02734,0.29297 -3.18359,0 -4.29688,-0.76172 -2.61718,-1.79688 -2.61718,-5.3125 0,-3.71094 2.67578,-6.42578 2.67578,-2.71485 6.32812,-2.71485 z m -0.46875,4.16016 q -1.44531,0 -2.63672,1.42578 -1.1914,1.42578 -1.1914,3.14453 0,2.26563 2.53906,2.26563 1.48438,0 2.28516,-0.91797 1.32812,-1.50391 1.32812,-3.4375 0,-1.11328 -0.64453,-1.79688 -0.64453,-0.68359 -1.67969,-0.68359 z"
         style="stroke:#ffffff"
         id="path878" />
      <path
         d="m 378.36719,153.85731 4.58984,-5.97656 0.37109,-0.46875 q 1.15235,-1.50391 2.53907,-1.50391 0.8789,0 1.44531,0.58594 0.56641,0.56641 0.56641,1.44531 0,0.91797 -1.19141,2.42188 l -7.32422,9.21875 q -1.44531,1.81641 -2.98828,1.81641 -1.26953,0 -2.14844,-0.95704 -0.8789,-0.95703 -0.8789,-2.34375 0,-0.35156 0.0586,-0.72265 l 0.64453,-3.51563 -3.98437,5.72266 q -1.25,1.81641 -2.77344,1.81641 -1.3086,0 -2.14844,-1.01563 -0.83984,-1.01562 -0.83984,-2.61719 0,-0.23437 0.0195,-0.39062 l 0.54687,-8.1836 q 0.11719,-1.58203 0.82032,-2.42187 0.72265,-0.85938 1.95312,-0.85938 1.83594,0 1.83594,2.01172 0,0.33203 -0.0391,0.74219 l -0.54688,5.46875 4.35547,-6.23047 q 1.38672,-1.99219 3.22266,-1.99219 1.13281,0 1.79687,0.64454 0.66406,0.64453 0.66406,1.73828 0,0.44922 -0.0195,0.66406 z"
         style="stroke:#ffffff"
         id="path880" />
      <path
         d="m 391.55078,155.40028 q 0,1.46485 2.20703,1.46485 h 5.80078 q 2.46094,0 2.46094,1.73828 0,1.1914 -0.87891,1.85547 -0.85937,0.66406 -2.42187,0.66406 h -5.52734 q -3.08594,0 -4.70704,-1.52344 -1.60156,-1.52344 -1.60156,-4.45312 0,-3.76954 2.53906,-6.50391 2.5586,-2.73438 6.07422,-2.73438 2.5586,0 4.10157,1.34766 1.5625,1.32813 1.5625,3.51563 0,2.63671 -2.14844,3.90625 -1.19141,0.72265 -3.55469,0.72265 z m 0.9375,-3.55469 h 2.14844 q 2.08984,0 2.03125,-0.91796 -0.0586,-1.03516 -1.34766,-1.03516 -1.79687,0 -2.83203,1.95312 z"
         style="stroke:#ffffff"
         id="path882" />
      <path
         d="m 407.64453,150.45888 -0.66406,1.64062 q -0.89844,2.1875 -2.34375,2.1875 -0.87891,0 -1.46485,-0.52734 -0.58593,-0.52735 -0.58593,-1.3086 0,-0.44922 0.42968,-1.52343 l 2.20704,-5.44922 q 0.80078,-1.97266 2.26562,-1.97266 1.44531,0 1.77734,1.36719 l 0.15625,0.60547 q 0.11719,0.46875 0.35157,0.58593 0.23437,0.11719 1.15234,0.11719 h 4.57031 q 2.5586,0 2.5586,1.79688 0,2.48047 -3.24219,2.48047 l -0.21484,0.19531 q -3.10547,2.96875 -3.10547,4.58984 0,1.6211 1.79687,1.6211 H 415.75 q 2.48047,0 2.48047,1.71875 0,1.21093 -0.87891,1.875 -0.85937,0.66406 -2.42187,0.66406 h -3.82813 q -1.95312,0 -3.20312,-1.34766 -1.23047,-1.34765 -1.23047,-3.49609 0,-1.36719 0.66406,-2.65625 0.66406,-1.28906 2.34375,-3.16406 z"
         style="stroke:#ffffff"
         id="path884" />
      <path
         d="m 344.63672,201.12294 h -5.41016 l -6.46484,11.1914 q -4.57031,7.94922 -10.83985,7.94922 -3.84765,0 -6.46484,-2.77343 -2.59766,-2.75391 -2.59766,-6.83594 0,-3.32031 2.01172,-6.38672 2.01172,-3.08594 5.48828,-5.11719 2.59766,-1.48437 5.76172,-2.08984 3.16407,-0.60547 8.41797,-0.60547 h 1.44531 l 1.54297,-2.83203 q 3.22266,-5.91797 7.8711,-7.89063 2.98828,-1.26953 7.8125,-1.26953 1.23047,0 1.93359,0.54688 0.70313,0.54687 0.70313,1.52343 0,0.44922 -0.23438,1.05469 l -0.17578,0.44922 -3.35938,8.41797 h 1.48438 0.50781 q 2.1875,0 2.1875,1.89453 0,1.15234 -0.89844,1.97266 -0.89843,0.80078 -2.1875,0.80078 h -0.52734 -2.46094 l -2.16797,5.33203 h 3.1836 0.50781 q 2.1875,0 2.1875,1.875 0,1.17187 -0.89844,1.99219 -0.89843,0.80078 -2.1875,0.80078 h -0.52734 -4.17969 q -1.67969,0 -2.7539,-0.85938 -1.05469,-0.8789 -1.05469,-2.26562 0,-1.07422 0.80078,-3.04688 z m 1.91406,-4.66797 2.8125,-6.93359 q -2.07031,0.13671 -3.49609,1.32812 -1.40625,1.17188 -3.22266,4.27734 l -0.80078,1.32813 z m -13.24219,4.66797 h -1.66015 q -5.58594,0 -8.86719,2.07031 -2.08984,1.32813 -3.33984,3.32031 -1.23047,1.99219 -1.23047,4.02344 0,1.85547 1.1914,3.16406 1.19141,1.32813 2.89063,1.32813 2.94922,0 5.21484,-3.90625 z"
         style="fill:#800000;stroke:#ffffff"
         id="path886" />
      <path
         d="m 370.49609,206.86513 h 2.26563 q 1.34765,0 1.91406,0.41015 0.56641,0.39063 0.56641,1.3086 0,1.1914 -0.87891,1.875 -0.85937,0.66406 -2.42187,0.66406 h -3.4961 q -1.64062,0 -2.1875,-1.26953 -1.07422,1.26953 -2.69531,1.26953 h -2.85156 q -1.71875,0 -2.85157,-1.07422 -1.13281,-1.07422 -1.13281,-2.71484 0,-0.9375 0.50781,-2.1875 l 2.65625,-6.52344 q 1.11329,-2.71485 3.04688,-2.71485 0.83984,0 1.42578,0.54688 0.58594,0.52734 0.58594,1.30859 0,0.58594 -0.3125,1.34766 l -0.21485,0.52734 -2.05078,5.01953 -0.21484,0.58594 q -0.17578,0.50781 -0.19531,0.76172 -0.0391,0.87891 1.13281,0.87891 2.42187,0 3.22266,-1.95313 l 2.4414,-6.01562 q 1.09375,-2.73438 3.08594,-2.73438 0.82031,0 1.40625,0.54688 0.58594,0.54687 0.58594,1.30859 0,0.60547 -0.50782,1.875 z"
         style="stroke:#ffffff"
         id="path888" />
      <path
         d="m 385.73047,196.18153 h 0.60547 q 2.48047,0 2.48047,1.73828 0,1.19141 -0.87891,1.85547 -0.87891,0.66406 -2.42188,0.66406 h -1.42578 l -2.61718,6.42579 h 2.1875 q 2.48046,0 2.48046,1.73828 0,1.1914 -0.8789,1.85547 -0.85938,0.66406 -2.42188,0.66406 h -3.49609 q -1.48438,0 -2.36328,-0.6836 -0.85938,-0.68359 -0.85938,-1.85546 0,-0.72266 0.35157,-1.60157 l 0.37109,-0.85937 2.30469,-5.6836 h -0.29297 q -2.1875,0 -2.1875,-1.69921 0,-1.21094 0.85937,-1.875 0.87891,-0.6836 2.44141,-0.6836 h 0.89844 l 1.03515,-2.55859 0.21485,-0.52735 q 0.91797,-2.16796 2.89062,-2.16796 0.80078,0 1.36719,0.54687 0.58594,0.52734 0.58594,1.28906 0,0.74219 -0.50782,1.875 z"
         style="stroke:#ffffff"
         id="path890" />
      <path
         d="m 397.03906,195.90809 q 2.83203,0 4.64844,1.79688 1.83594,1.79687 1.83594,4.57031 0,2.08985 -0.95703,4.16016 -0.95704,2.05078 -2.48047,3.28125 -1.01563,0.80078 -2.10938,1.11328 -1.07422,0.29297 -3.02734,0.29297 -3.1836,0 -4.29688,-0.76172 -2.61718,-1.79688 -2.61718,-5.3125 0,-3.71094 2.67578,-6.42578 2.67578,-2.71485 6.32812,-2.71485 z m -0.46875,4.16016 q -1.44531,0 -2.63672,1.42578 -1.1914,1.42578 -1.1914,3.14453 0,2.26563 2.53906,2.26563 1.48437,0 2.28516,-0.91797 1.32812,-1.50391 1.32812,-3.4375 0,-1.11328 -0.64453,-1.79688 -0.64453,-0.68359 -1.67969,-0.68359 z"
         style="stroke:#ffffff"
         id="path892" />
      <path
         d="m 428.05469,206.86513 h 2.32422 q 2.46093,0 2.46093,1.73828 0,1.1914 -0.8789,1.85547 -0.85938,0.66406 -2.40235,0.66406 h -3.96484 q -1.28906,0 -2.08984,-0.6836 -0.80079,-0.68359 -0.80079,-1.79687 0,-0.76172 0.52735,-2.07031 l 1.83594,-4.47266 q 0.15625,-0.39062 0.15625,-0.72266 0,-1.26953 -1.28907,-1.26953 -0.99609,0 -1.97265,0.89844 -0.97657,0.89844 -1.5625,2.38281 l -2.1875,5.39063 q -1.07422,2.61719 -3.125,2.61719 -0.80078,0 -1.36719,-0.52735 -0.56641,-0.52734 -0.56641,-1.25 0,-0.5664 0.29297,-1.32812 l 0.21485,-0.52735 2.20703,-5.44922 q 0.29297,-0.72265 0.29297,-1.13281 0,-0.42969 -0.39063,-0.74219 -0.39062,-0.33203 -0.91797,-0.33203 -2.10937,0 -3.33984,3.04688 l -2.28516,5.60547 q -1.07422,2.63672 -3.10547,2.63672 -0.80078,0 -1.38672,-0.50782 -0.5664,-0.52734 -0.5664,-1.26953 0,-0.58594 0.29297,-1.32812 l 0.21484,-0.52735 3.88672,-9.57031 q 0.82031,-2.01172 2.46094,-2.01172 1.69922,0 2.10937,1.60156 1.32813,-1.13281 2.14844,-1.5039 0.83984,-0.3711 2.05078,-0.3711 2.61719,0 3.92578,2.28516 2.1875,-2.28516 4.92188,-2.28516 1.875,0 3.125,1.09375 1.26953,1.07422 1.26953,2.65625 0,0.9961 -0.42969,2.05079 z"
         style="stroke:#ffffff"
         id="path894" />
      <path
         d="m 446.92187,206.86513 h 2.14844 q 2.46094,0 2.46094,1.71875 0,1.1914 -0.87891,1.875 -0.8789,0.66406 -2.42187,0.66406 h -2.5 q -1.67969,0 -2.28516,-1.3086 -1.46484,1.3086 -2.83203,1.3086 h -2.22656 q -2.14844,0 -3.47656,-1.52344 -1.3086,-1.54297 -1.3086,-4.02344 0,-3.75 2.57813,-6.69922 2.59765,-2.96875 5.85937,-2.96875 2.5,0 3.65235,1.73829 0.97656,-1.46485 2.55859,-1.46485 0.85937,0 1.42578,0.54688 0.58594,0.54687 0.58594,1.34765 0,0.54688 -0.3125,1.3086 l -0.21485,0.52734 z m -7.08984,0.0977 h 0.48828 q 1.60156,0 2.12891,-1.30859 l 1.36719,-3.37891 q 0.27343,-0.66406 0.27343,-1.11328 0,-0.52734 -0.52734,-0.91797 -0.50781,-0.39062 -1.23047,-0.39062 -1.42578,0 -2.77344,1.66015 -1.34765,1.66016 -1.34765,3.4375 0,2.01172 1.62109,2.01172 z"
         style="stroke:#ffffff"
         id="path896" />
      <path
         d="m 462.03906,196.18153 h 0.60547 q 2.48047,0 2.48047,1.73828 0,1.19141 -0.87891,1.85547 -0.8789,0.66406 -2.42187,0.66406 h -1.42578 l -2.61719,6.42579 h 2.1875 q 2.48047,0 2.48047,1.73828 0,1.1914 -0.87891,1.85547 -0.85937,0.66406 -2.42187,0.66406 h -3.4961 q -1.48437,0 -2.36328,-0.6836 -0.85937,-0.68359 -0.85937,-1.85546 0,-0.72266 0.35156,-1.60157 l 0.37109,-0.85937 2.30469,-5.6836 h -0.29297 q -2.1875,0 -2.1875,-1.69921 0,-1.21094 0.85938,-1.875 0.8789,-0.6836 2.4414,-0.6836 h 0.89844 l 1.03516,-2.55859 0.21484,-0.52735 q 0.91797,-2.16796 2.89063,-2.16796 0.80078,0 1.36718,0.54687 0.58594,0.52734 0.58594,1.28906 0,0.74219 -0.50781,1.875 z"
         style="stroke:#ffffff"
         id="path898" />
      <path
         d="m 468.99219,205.40028 q 0,1.46485 2.20703,1.46485 H 477 q 2.46094,0 2.46094,1.73828 0,1.1914 -0.87891,1.85547 -0.85937,0.66406 -2.42187,0.66406 h -5.52735 q -3.08594,0 -4.70703,-1.52344 -1.60156,-1.52344 -1.60156,-4.45312 0,-3.76954 2.53906,-6.50391 2.55859,-2.73438 6.07422,-2.73438 2.55859,0 4.10156,1.34766 1.5625,1.32813 1.5625,3.51563 0,2.63671 -2.14844,3.90625 -1.1914,0.72265 -3.55468,0.72265 z m 0.9375,-3.55469 h 2.14843 q 2.08985,0 2.03125,-0.91796 -0.0586,-1.03516 -1.34765,-1.03516 -1.79688,0 -2.83203,1.95312 z"
         style="stroke:#ffffff"
         id="path900" />
    </g>
  </g>
  <g
     inkscape:groupmode="layer"
     id="layer5"
     inkscape:label="Camada 5"
     style="display:inline">
    <path
       style="display:inline;fill:#66ff00;fill-opacity:1;stroke:#000000;stroke-width:0.5;stroke-linecap:butt;stroke-linejoin:miter;stroke-miterlimit:4;stroke-dasharray:none;stroke-opacity:1"
       d="m 98.24282,10.800388 h 46.35717 l -2.09948,-2.4370959 10.52024,4.0706839 -8.17211,5.476924 0.39125,-2.633979 -47.317511,-0.214759 z"
       id="path39466"
       sodipodi:nodetypes="cccccccc" />
    <path
       style="display:inline;fill:#ff7f2a;fill-opacity:1;stroke:#000000;stroke-width:0.5;stroke-linecap:butt;stroke-linejoin:miter;stroke-miterlimit:4;stroke-dasharray:none;stroke-opacity:1"
       d="m 148.01877,48.20881 h -46.14452 l 2.08984,-2.432333 -10.471981,4.062728 8.134621,5.466218 -0.38945,-2.62883 47.10045,-0.214339 z"
       id="path39466-6"
       sodipodi:nodetypes="cccccccc" />
  </g>
  <g
     inkscape:groupmode="layer"
     id="layer4"
     inkscape:label="Camada 4"
     style="display:inline">
    <text
       xml:space="preserve"
       transform="matrix(0.63603824,0,0,0.4338054,-132.65223,2.8430091)"
       id="text5334"
       style="font-style:normal;font-variant:normal;font-weight:normal;font-stretch:normal;font-size:64px;line-height:1.25;font-family:'Harlow Solid Italic';-inkscape-font-specification:'Harlow Solid Italic, ';white-space:pre;shape-inside:url(#rect5336);fill:#66ff00;fill-opacity:1;stroke:none"><tspan
         x="353.73242"
         y="83.786042"
         id="tspan130174"><tspan
           style="font-family:'Brush Script MT';-inkscape-font-specification:'Brush Script MT';stroke:#000000"
           id="tspan130170">E.</tspan><tspan
           style="font-family:'Brush Script MT';-inkscape-font-specification:'Brush Script MT';fill:#ff7f2a;stroke:#000000"
           id="tspan130172">I.</tspan></tspan></text>
  </g>
</svg>
